<?xml version="1.0" encoding="utf-8"?>
<!-- Generator: Adobe Illustrator 16.0.0, SVG Export Plug-In . SVG Version: 6.00 Build 0)  -->
<!DOCTYPE svg PUBLIC "-//W3C//DTD SVG 1.1//EN" "http://www.w3.org/Graphics/SVG/1.1/DTD/svg11.dtd">
<svg version="1.1" id="Layer_1" xmlns="http://www.w3.org/2000/svg" xmlns:xlink="http://www.w3.org/1999/xlink" x="0px" y="0px"
	 width="460.411px" height="233.172px" viewBox="0 0 460.411 233.172" enable-background="new 0 0 460.411 233.172"
	 xml:space="preserve">
<image overflow="visible" enable-background="new    " width="2448" height="3264" xlink:href="../../../../../../../Documents/School/Design for Interactive 2/Pool Project/fr_1211.jpg"  transform="matrix(1 0 0 1 -3848.5679 -1284.1694)">
</image>
<g>
	<path fill="#333333" d="M34.356,107.966c0,0-10.987-9.019-20.677-9.396c-9.69-0.376-12.49-10.545-8.823-14.758
		s13.026-0.204,18.867,8.473C29.564,100.962,34.356,107.966,34.356,107.966z"/>
	<path fill="#333333" d="M404.174,78.15c0,0,0.184-14.214-5.574-22.017c-5.758-7.803,0.436-16.341,6.016-16.107
		c5.58,0.233,8.295,10.046,5.166,20.026C406.653,70.033,404.174,78.15,404.174,78.15z"/>
	<path fill="#333333" d="M49.772,160.969c0,0-6.944-2.879-11.906-1.584c-4.961,1.298-7.938-3.418-6.729-6.113
		c1.209-2.693,6.561-2.102,10.848,1.393C46.271,158.161,49.772,160.969,49.772,160.969z"/>
	<path fill="#333333" d="M19.431,136.883c0,0-7.809-5.881-11.772,0.24c-2.788,4.303-6.707,2.392-7.492-0.455
		c-0.786-2.849,1.049-5.842,9.247-5.842C15.8,130.827,19.431,136.883,19.431,136.883z"/>
	<path fill="#333333" d="M98.345,79.741c0,0-4.109-8.869-10.492-5.344c-4.489,2.479-7.041-1.056-6.391-3.937
		s6.032-3.397,10.909-0.787C98.002,72.687,98.345,79.741,98.345,79.741z"/>
	<path fill="#333333" d="M209.995,58.775c0,0-4.994-24.254-17.895-23.974c-9.072,0.197-10.168-7.441-6.781-11.421
		c3.387-3.981,12.246-0.368,17.745,7.73C209.413,40.461,209.995,58.775,209.995,58.775z"/>
	<path fill="#333333" d="M437.288,150.03c0,0,7.004-2.729,11.936-1.326c4.934,1.402,8.012-3.248,6.859-5.969
		c-1.15-2.72-6.514-2.242-10.875,1.159C440.846,147.297,437.288,150.03,437.288,150.03z"/>
	<path fill="#333333" d="M211.122,20.148c0,0,1.374-7.391,5.166-10.843c3.792-3.452,1.462-8.52-1.456-8.975
		c-2.918-0.456-5.34,4.354-4.748,9.853S211.122,20.148,211.122,20.148z"/>
	<path fill="#333333" d="M131.749,81.621c0,0-2.082-7.223-6.189-10.293c-4.107-3.07-2.278-8.339,0.582-9.074
		c2.861-0.735,5.735,3.817,5.677,9.348C131.761,77.133,131.749,81.621,131.749,81.621z"/>
	<path fill="#333333" d="M441.055,116.884c0,0,7.811-5.881,11.773,0.24c2.787,4.303,6.707,2.392,7.492-0.456
		c0.785-2.848-3.717-5.842-9.246-5.842C444.688,110.826,441.055,116.884,441.055,116.884z"/>
	<path fill="#333333" d="M187.346,114.073c0,0-5.47-22.525-14.799-33.761c-12.653-15.239,11.008-28.435,14.685,1.667
		C188.5,92.362,187.346,114.073,187.346,114.073z"/>
	<path fill="#333333" d="M218.347,151.308c0,0,2.848-31.916-8.634-50.481c-16.854-27.252,21.604-35.899,21.54-0.101
		C231.232,111.185,218.347,151.308,218.347,151.308z"/>
	<path fill="#333333" d="M42.648,80.978c0,0-2.155-14.05,2.462-22.578c4.617-8.528-2.702-16.122-8.195-15.115
		c-5.494,1.006-6.818,11.101-2.332,20.55C39.068,73.284,42.648,80.978,42.648,80.978z"/>
	<path fill="#333333" d="M104.099,72.323c0,0-1.607-10.474,1.835-16.83c3.441-6.356-2.015-12.017-6.11-11.267
		c-4.095,0.75-5.082,8.275-1.738,15.318C101.43,66.588,104.099,72.323,104.099,72.323z"/>
	<path fill="#333333" d="M419.7,105.966c0,0,10.74-9.312,20.416-9.949c9.678-0.638,12.203-10.878,8.424-14.99
		c-3.779-4.112-13.027,0.147-18.633,8.979C424.301,98.837,419.7,105.966,419.7,105.966z"/>
	<path fill="#333333" d="M149.869,60.229c0,0,1.22-14.162,7.718-21.36c6.498-7.198,1.177-16.304-4.399-16.622
		s-9.244,9.18-7.113,19.42C148.205,51.907,149.869,60.229,149.869,60.229z"/>
	<path fill="#333333" d="M65.763,58.241c0,0,3.281-11.726,9.217-14.027c15.743-6.103-6.655-14.367-9.217,2.933
		C64.757,53.94,65.763,58.241,65.763,58.241z"/>
	<path fill="#333333" d="M335.301,56.123c0,0,4.109-8.87,10.494-5.344c4.488,2.479,7.039-1.056,6.389-3.937
		c-0.648-2.881-6.031-3.397-10.906-0.787C335.645,49.068,335.301,56.123,335.301,56.123z"/>
	<path fill="#333333" d="M308.713,58.529c0,0-4.812-5.774-9.81-6.931c-4.995-1.156-5.44-6.716-3.12-8.541
		c2.323-1.824,6.787,1.186,8.961,6.272C306.917,54.417,308.713,58.529,308.713,58.529z"/>
	<path fill="#333333" d="M322.584,50.316c0,0,1.607-10.474-1.834-16.831c-3.441-6.356,2.014-12.017,6.109-11.267
		c4.094,0.75,5.082,8.275,1.736,15.318C325.252,44.579,322.584,50.316,322.584,50.316z"/>
	<path fill="#333333" d="M261.148,35.753c0,0-4.919-13.336-13.089-18.56S242.616,1.781,247.909,0
		c5.293-1.78,11.34,6.41,11.992,16.849C260.554,27.289,261.148,35.753,261.148,35.753z"/>
	<path fill="#333333" d="M374.165,54.882c0,0-3.279-11.726-9.215-14.027c-15.744-6.103,6.652-14.367,9.215,2.933
		C375.17,50.58,374.165,54.882,374.165,54.882z"/>
	<path fill="#333333" d="M212.862,67.966c0,0,5.284-32.654,15.012-34.683c9.729-2.029,15.183-11.685,10.761-15.318
		c-4.424-3.634-17.709,2.718-22.136,12.481C212.073,40.209,212.862,67.966,212.862,67.966z"/>
	<path fill="#333333" d="M84.043,133c9.352-0.641,24.854,2.578,28.255,16.522c2.395,9.817,13.889,7.901,10.536,19.875
		c-1.618,5.778-17.432,6.421-21.259-11.494c-3.828-17.915-21.5-20.114-26.769-13.409c-5.268,6.705,0,16.762,6.363,19.156
		c7.942,2.989,36.799,13.032,48.993,31.467c6.385,9.651,11.737,28.926-2.989,35.358c-19.768,8.638-26.403-5.304-33.066-16.078
		c-4.062-6.567-11.021-4.772-10.56-14.828c0.354-7.675,18.051-18.791,22.744,9.226c3.48,20.779,18.271,15.804,15.532,1.209
		c-1.919-10.225-5.222-17.239-18.75-25.172c-19.245-11.281-39.144-9.209-45.849-29.801c-8.783-26.977-21.414-12.479-30.342-19.17
		c-8.928-6.691-7.354-18.186,0-17.707c7.355,0.479,16.933,20.115,30.342,17.241c13.41-2.873,6.705-13.438,1.437-17.255
		c-5.268-3.817-16.938-11.492-17.09-22.709c-0.119-8.753,15.206-14.55,21.879-0.458C67.223,102.942,69.324,134.01,84.043,133z"/>
	<path fill="#333333" d="M154.866,126.146c-4.55-5.269,0-23.946,5.507-34.96c8.396-16.793-5.507-29.396-15.325-22.235
		c-7.955,5.803-2.43,15.836,0.479,29.418c3.504,16.357-1.916,22.03-10.057,23.946c-8.142,1.916-15.534-7.663-15.534-19.157
		c0-16.284-10.327-22.03-18.469-14.846c-8.142,7.184,5.747,17.241,11.973,28.734c6.226,11.494,5.317,18.568,14.092,39.697
		c9.737,23.445,12.456,31.889,22.305,52.014c8.381,17.959,38.28,7.644,22.75-4.504c-5.39-4.217-19.569-8.412-24.503-16.31
		c-3.372-5.397-5.399-15.715-0.641-14.625c9.613,2.201,27.035-0.173,31.129-12.69C187.07,134.646,159.416,131.413,154.866,126.146z
		 M164.232,162.933c-4.789,4.312-19.144,4.539-23.733-1.108c-4.467-5.496-14.747-31.488-7.423-33.355
		c8.481-2.162,23.25,3.171,31.151,10.08C172.129,145.458,169.021,158.624,164.232,162.933z"/>
	<path fill="#333333" d="M196.61,196.821c5.532,8.277,12.434,11.363,22.452,13.176c21.688,3.926,17.856-22.152,3.33-16.746
		c-11.54,4.293-13.166,5.328-19.086-4.305c-3.233-5.259-6.352-12.809-6.039-27.834c0.359-17.24,2.968-24.171,4.053-32.729
		c3.594-28.333-28.618-29.691-18.809,3.326C188.629,152.303,189.827,186.668,196.61,196.821z"/>
	<path fill="#333333" d="M287.762,191.729c-3.604-11.898-8.486-49.803-14.872-71.492c-7.938-26.961,8.804-43.792,2.468-58.061
		c-8-18.016-26.643-12.671-17.152,9.723c7.645,18.037-4.703,43.928-9.881,68.008c-4.053,18.846-8.135,31.137-7.033,52.779
		c1.31,25.707,17.558,18.538,15.461,3.425c-2.035-14.678-5.117-27.849-3.683-31.2c1.437-3.353,20.825-9.32,22.979-0.342
		c3.367,14.028-4.67,24.064-2.873,31.248C277.204,211.922,292.93,208.793,287.762,191.729z M271.608,152.226
		c-4.689,0.58-9.949-0.319-14.738,1.692c-5.986,2.514,0.476-17.862,4.377-20.236C265.543,131.066,269.092,140.374,271.608,152.226z"
		/>
	<path fill="#333333" d="M305.741,99.154c-14.726-20.473-29.093-4.31-16.881,7.901c7.973,7.971,16.762,3.751,12.571,24.064
		c-2.075,10.057-9.339,21.432,2.155,40.705c11.492,19.274,21.322,29.377,14.498,34.766c-6.824,5.387-12.905,3.113-11.295-6.422
		c2.422-14.33-10.857-16.66-13.621-4.041c-2.762,12.619,1.771,19.149,9.199,20.695c9.58,1.992,28.873,0.137,26-15.666
		c-2.873-15.804-18.098-27.195-19.055-43.48c-0.605-10.285,2.451-23.936,20.33-24.635c20.643-0.807,19.445,29.436,10.066,29.008
		c-7.9-0.357-17.186,5.197-12.42,13.605c6.105,10.774,19.783,7.84,25.604-7.683c5.027-13.409,2.451-23.231-0.104-30.521
		c-5.873-16.762-1.492-23.614,5.387-28.603c22.629-16.41,14.178-37.507-5.746-22.282c-13.646,10.43-4.326,35.698-11.664,36.616
		c-14.543,1.819-10.277-23.238-8.447-44.862c2.154-25.468-25.312-24.864-17.24,1.437c4.404,14.354,12.443,40.563,2.514,40.563
		C309.333,120.323,311.124,106.636,305.741,99.154z"/>
	<path fill="#333333" d="M380.393,112.972c7.543-37.02,41.914-17.47,22.426,4.159c-19.635,21.789-26.332,43.689-29.207,53.027
		c6.553-0.759,12.246-5.423,20.035,0.193c3.211-0.283,7.211-4.902,12.055-20.402c13.617-43.589,41.822-10.134,9.125,14.564
		c-16.279,12.296-21.969,26.986-29.387,53.949c-7.307,26.555-35.256,12.602-15.984-6.106c6.391-6.203,16.07-11.62,19.76-30.442
		c-1.777-4.094-5.723-8.178-19.52-0.299c-7.166,11.635-11.096,12.252-11.65,23.172c-1.438,28.256-34.424,23.986-14.947-0.557
		C358.301,185.073,372.307,152.667,380.393,112.972z"/>
</g>
</svg>
