<?xml version="1.0" encoding="utf-8"?>
<!-- Generator: Adobe Illustrator 16.0.0, SVG Export Plug-In . SVG Version: 6.00 Build 0)  -->
<!DOCTYPE svg PUBLIC "-//W3C//DTD SVG 1.1//EN" "http://www.w3.org/Graphics/SVG/1.1/DTD/svg11.dtd">
<svg version="1.1" id="Icons" xmlns="http://www.w3.org/2000/svg" xmlns:xlink="http://www.w3.org/1999/xlink" x="0px" y="0px"
	 width="100px" height="100px" viewBox="0 0 100 100" enable-background="new 0 0 100 100" xml:space="preserve">
<path fill="#4D4D4D" d="M88.163,5H11.459C7.787,5,5,7.887,5,11.447v77.102C5,92.11,7.787,95,11.459,95h76.703
	C91.835,95,95,92.11,95,88.549V11.447C95,7.887,91.835,5,88.163,5z M83.304,33.566c0.034,0.729,0.049,1.46,0.049,2.194
	c0,22.416-17.062,48.264-48.262,48.264c-9.58,0-18.496-2.81-26.002-7.621c1.327,0.156,2.677,0.237,4.047,0.237
	c7.946,0,15.261-2.713,21.066-7.262c-7.423-0.137-13.688-5.042-15.846-11.78c1.036,0.198,2.098,0.306,3.191,0.306
	c1.547,0,3.046-0.209,4.469-0.596c-7.76-1.56-13.607-8.415-13.607-16.634c0-0.07,0-0.143,0.002-0.213
	c2.287,1.271,4.902,2.033,7.682,2.122c-4.551-3.043-7.546-8.234-7.546-14.118c0-3.11,0.836-6.024,2.297-8.528
	C23.21,30.199,35.71,36.953,49.808,37.66c-0.29-1.242-0.439-2.536-0.439-3.866c0-9.367,7.595-16.962,16.963-16.962
	c4.878,0,9.287,2.061,12.381,5.355c3.864-0.76,7.495-2.172,10.772-4.115c-1.267,3.961-3.956,7.286-7.458,9.386
	c3.432-0.41,6.7-1.323,9.742-2.672C89.495,28.188,86.619,31.175,83.304,33.566z"/>
</svg>
